<svg width="18" height="16" viewBox="0 0 18 16" fill="none" xmlns="http://www.w3.org/2000/svg">
<path d="M7 10.375L9.25 11.125C9.25 11.125 14.875 10 15.625 10C16.375 10 16.375 10.75 15.625 11.5C14.875 12.25 12.25 14.5 10 14.5C7.75 14.5 6.25 13.375 4.75 13.375H1" stroke="black" stroke-width="2" stroke-linecap="round" stroke-linejoin="round"/>
<path d="M1 8.875C1.75 8.125 3.25 7 4.75 7C6.25 7 9.8125 8.5 10.375 9.25C10.9375 10 9.25 11.125 9.25 11.125" stroke="black" stroke-width="2" stroke-linecap="round" stroke-linejoin="round"/>
<path d="M5.5 4.75V1.75C5.5 1.55109 5.57902 1.36032 5.71967 1.21967C5.86032 1.07902 6.05109 1 6.25 1H15.25C15.4489 1 15.6397 1.07902 15.7803 1.21967C15.921 1.36032 16 1.55109 16 1.75V7.75" stroke="black" stroke-width="2" stroke-linecap="round" stroke-linejoin="round"/>
<path d="M8.875 1H12.625V4.375H8.875V1Z" stroke="black" stroke-width="2" stroke-linecap="round" stroke-linejoin="round"/>
</svg>
